<?xml version="1.0" standalone="no"?>
<!DOCTYPE svg PUBLIC "-//W3C//DTD SVG 20010904//EN"
 "http://www.w3.org/TR/2001/REC-SVG-20010904/DTD/svg10.dtd">
<svg version="1.0" xmlns="http://www.w3.org/2000/svg"
 width="256.000000pt" height="256.000000pt" viewBox="0 0 256.000000 256.000000"
 preserveAspectRatio="xMidYMid meet">
<metadata>
Created by potrace 1.11, written by Peter Selinger 2001-2013
</metadata>
<g transform="translate(0.000000,256.000000) scale(0.100000,-0.100000)"
fill="#000000" stroke="none">
<path d="M948 2189 c-10 -7 -10 -9 2 -9 34 -1 123 -52 165 -96 40 -41 95 -136
95 -165 0 -6 -14 1 -31 16 -63 52 -113 72 -215 84 -85 10 -96 2 -35 -24 64
-26 131 -81 169 -138 27 -39 56 -106 49 -113 -2 -2 -20 8 -40 22 -21 14 -57
32 -80 40 -42 15 -177 27 -177 15 0 -4 22 -14 48 -23 27 -10 58 -26 70 -35 11
-10 29 -25 40 -33 10 -8 31 -32 46 -52 l28 -37 -55 -35 c-73 -47 -122 -99
-156 -166 -46 -89 -51 -138 -48 -465 l3 -300 33 -70 c44 -89 116 -161 206
-206 69 -34 70 -34 210 -34 157 1 158 1 238 37 106 50 201 169 226 286 16 77
14 595 -3 660 -29 107 -102 205 -193 259 -24 14 -43 29 -43 33 0 25 108 123
166 150 35 17 64 32 64 34 0 2 -30 2 -67 1 -71 -2 -134 -22 -192 -61 -19 -13
-37 -21 -39 -19 -11 11 62 135 101 172 45 42 115 83 142 83 8 0 15 5 15 11 0
8 -22 10 -72 7 -82 -5 -152 -32 -212 -80 -37 -30 -38 -30 -31 -7 14 46 48 107
79 142 36 41 140 107 168 107 10 0 18 4 18 9 0 11 -106 6 -161 -9 -55 -15
-103 -43 -152 -89 l-38 -36 -30 32 c-34 37 -97 76 -149 92 -47 14 -145 20
-162 10z"/>
</g>
</svg>
